#!OML:ASF F:\VICON\USERDATA\INSTALL\rory3\rory3.ASF
:FULLY-SPECIFIED
:DEGREES
503
root 4.62537 15.9991 2.09001 20.8958 -8.20542 -3.47994
lowerback 10.4333 -0.440114 3.25214
upperback 1.98158 -0.200985 0.755378
thorax -3.79172 -0.13562 -1.01852
lowerneck -14.6755 -0.597158 -1.51898
upperneck 37.8167 0.206004 -1.92695
head 15.8751 -0.442797 -0.53647
rclavicle 2.9122e-014 6.16232e-015
rhumerus -64.1427 38.8904 -82.0864
rradius 76.4476
rwrist -10.4646
rhand -10.3696 -40.8824
rfingers 7.12502
rthumb 15.6277 -70.2712
lclavicle 2.9122e-014 6.16232e-015
lhumerus -50.8267 -54.4191 79.4136
lradius 63.8024
lwrist 31.3837
lhand -19.011 -30.7454
lfingers 7.12502
lthumb 7.29458 -0.891141
rfemur -74.3791 3.0432 16.8483
rtibia 37.6569
rfoot 38.8836 1.38879
rtoes 5.14759
lfemur -53.1056 -1.07615 -26.484
ltibia 58.2498
lfoot -23.584 5.9662
ltoes 12.8013
504
root 4.626 15.9956 2.08334 20.9159 -8.05369 -3.49961
lowerback 10.5361 -0.47322 3.35061
upperback 1.96522 -0.227938 0.780987
thorax -3.86706 -0.151136 -1.04311
lowerneck -14.6724 -0.646038 -1.66071
upperneck 37.8392 0.0969758 -1.71567
head 15.8849 -0.479054 -0.439111
rclavicle 1.81391e-014 -2.45499e-014
rhumerus -64.4928 39.0144 -82.2344
rradius 76.0868
rwrist -10.2374
rhand -10.1122 -40.7054
rfingers 7.12502
rthumb 15.8756 -70.0746
lclavicle 1.81391e-014 -2.45499e-014
lhumerus -51.0865 -54.1467 79.4989
lradius 63.5044
lwrist 30.5099
lhand -19.4417 -31.1309
lfingers 7.12502
lthumb 6.87873 -1.26263
rfemur -74.4136 2.95717 16.8623
rtibia 37.6686
rfoot 38.9477 1.34583
rtoes 5.2172
lfemur -53.196 -1.21217 -26.4018
ltibia 58.292
lfoot -23.4917 5.94871
ltoes 12.8462
505
root 4.62339 15.9857 2.06984 20.9065 -7.9232 -3.58893
lowerback 10.8617 -0.503937 3.46084
upperback 1.92181 -0.239234 0.811704
thorax -4.09346 -0.16163 -1.06994
lowerneck -14.651 -0.692997 -1.70081
upperneck 37.8291 -0.00300094 -1.60841
head 15.874 -0.511166 -0.402718
rclavicle -1.70955e-014 3.97569e-015
rhumerus -64.8247 39.1481 -82.4027
rradius 75.759
rwrist -10.0515
rhand -10.1154 -39.9186
rfingers 7.12502
rthumb 15.8725 -69.288
lclavicle -1.70955e-014 3.97569e-015
lhumerus -51.2845 -53.9418 79.4423
lradius 63.2976
lwrist 29.7889
lhand -19.8091 -31.1978
lfingers 7.12502
lthumb 6.52411 -1.31827
rfemur -74.4531 2.98457 16.8876
rtibia 37.6994
rfoot 38.9465 1.20363
rtoes 5.02086
lfemur -53.3128 -1.24011 -26.2629
ltibia 58.371
lfoot -23.4417 5.90539
ltoes 13.6362
506
root 4.62886 15.9911 2.07356 20.8889 -7.91172 -3.549
lowerback 10.8434 -0.503897 3.49886
upperback 1.97508 -0.238303 0.787042
thorax -4.02782 -0.160279 -1.11745
lowerneck -14.6371 -0.689793 -1.5795
upperneck 37.7581 0.0107318 -1.73407
head 15.8342 -0.50437 -0.475003
rclavicle -6.41081e-015 7.65321e-015
rhumerus -65.0853 39.1649 -82.4814
rradius 75.5608
rwrist -9.87504
rhand -9.92974 -40.0473
rfingers 7.12502
rthumb 16.0513 -69.4024
lclavicle -6.41081e-015 7.65321e-015
lhumerus -51.4201 -54.2216 79.4248
lradius 63.0276
lwrist 29.7545
lhand -19.4244 -30.9939
lfingers 7.12502
lthumb 6.89552 -1.12625
rfemur -74.4192 2.78719 17.0233
rtibia 37.7611
rfoot 38.8397 1.43515
rtoes 4.82108
lfemur -53.2523 -1.27904 -26.3316
ltibia 58.3892
lfoot -23.5363 5.88487
ltoes 14.5841
507
root 4.62763 15.987 2.07331 20.8492 -7.92174 -3.50811
lowerback 10.9406 -0.497793 3.41709
upperback 2.10188 -0.238603 0.795484
thorax -3.94884 -0.157047 -1.06269
lowerneck -14.8504 -0.640488 -1.41451
upperneck 37.7426 0.123571 -1.95417
head 15.8789 -0.464384 -0.580786
rclavicle -3.72721e-015 1.13307e-014
rhumerus -65.0522 39.2277 -82.4416
rradius 75.2942
rwrist -9.84098
rhand -9.84886 -40.7481
rfingers 7.12502
rthumb 16.1292 -70.0969
lclavicle -3.72721e-015 1.13307e-014
lhumerus -51.3569 -54.7653 79.2792
lradius 62.7407
lwrist 30.1795
lhand -18.9892 -31.0826
lfingers 7.12502
lthumb 7.31554 -1.22904
rfemur -74.3984 2.79443 16.9547
rtibia 37.8153
rfoot 38.7615 1.51477
rtoes 4.78673
lfemur -53.2471 -1.2357 -26.3938
ltibia 58.4252
lfoot -23.5181 5.83465
ltoes 13.1236
508
root 4.62601 15.9833 2.07342 20.7923 -7.95047 -3.46654
lowerback 11.0445 -0.495689 3.34689
upperback 2.25002 -0.244344 0.779346
thorax -3.85157 -0.156416 -1.03931
lowerneck -15.2305 -0.627216 -1.33299
upperneck 37.8234 0.166106 -2.04899
head 16.0134 -0.449916 -0.632655
rclavicle -5.71506e-015 -1.67973e-014
rhumerus -64.9275 39.4613 -82.4348
rradius 74.8936
rwrist -10.0097
rhand -10.2454 -40.5383
rfingers 7.12502
rthumb 15.7473 -69.9177
lclavicle -5.71506e-015 -1.67973e-014
lhumerus -51.3286 -55.4397 79.0765
lradius 62.532
lwrist 30.7544
lhand -19.5676 -31.2521
lfingers 7.12502
lthumb 6.75728 -1.37996
rfemur -74.3725 2.841 16.8419
rtibia 37.8533
rfoot 38.6549 1.5148
rtoes 4.84619
lfemur -53.2053 -1.16389 -26.4667
ltibia 58.4275
lfoot -23.4649 5.86262
ltoes 14.2611
509
root 4.62455 15.9849 2.07327 20.773 -8.01004 -3.3905
lowerback 11.1279 -0.470066 3.23108
upperback 2.30809 -0.223366 0.747005
thorax -3.83586 -0.144248 -1.01069
lowerneck -15.404 -0.692771 -1.48119
upperneck 37.8755 0.0405694 -1.83819
head 16.0816 -0.494546 -0.53882
rclavicle 1.45113e-014 -8.94531e-016
rhumerus -64.8746 39.8331 -82.4613
rradius 74.4547
rwrist -10.2984
rhand -10.788 -39.9511
rfingers 7.12502
rthumb 15.2247 -69.3709
lclavicle 1.45113e-014 -8.94531e-016
lhumerus -51.5329 -55.9332 79.1262
lradius 62.2411
lwrist 31.0109
lhand -20.0038 -31.1637
lfingers 7.12502
lthumb 6.33613 -1.27849
rfemur -74.3789 2.92109 16.6492
rtibia 37.8647
rfoot 38.5855 1.49869
rtoes 4.51724
lfemur -53.1977 -1.13766 -26.5519
ltibia 58.4309
lfoot -23.4604 5.86061
ltoes 14.1443
